<?xml version="1.0" encoding="UTF-8"?><svg id="Layer_4" xmlns="http://www.w3.org/2000/svg" width="762.13" height="98.76" viewBox="0 0 762.13 98.76"><defs><style>.cls-1{fill:none;stroke:#fae8dc;stroke-miterlimit:10;stroke-width:2px;}.cls-2{fill:#f1cea4;stroke-width:0px;}</style></defs><line class="cls-1" y1="1" x2="762.13" y2="1"/><line class="cls-1" x1="265.76" y1="1" x2="265.58" y2="41.84"/><line class="cls-1" x1="155.17" y1="1" x2="154.92" y2="59.39"/><line class="cls-1" x1="381.77" y1="1" x2="381.52" y2="58.73"/><line class="cls-1" x1="477.51" y1="1" x2="477.36" y2="35.63"/><line class="cls-1" x1="608.68" y1="1" x2="608.6" y2="57.64"/><path class="cls-2" d="m153.91,58.02c-2.89,4.64-5.78,9.28-8.67,13.91l1.08-.62c-6.19.27-12.39.53-18.58.8-1.34.06-1.78,2.16-.33,2.46,5.06,1.04,10.11,2.08,15.17,3.12l-.75-1.84c-2.54,5.25-5.08,10.5-7.62,15.75-.64,1.32.86,2.4,1.96,1.51,5.33-4.26,10.67-8.53,16-12.79l-1.96-.25c3.33,6.03,6.66,12.06,9.99,18.09.59,1.07,2.37.61,2.33-.63-.24-6.58-.48-13.16-.73-19.74l-.92,1.21c4.21-1.5,8.42-3,12.63-4.5,1.33-.47,1.11-2.37-.33-2.46-4.81-.29-9.63-.58-14.44-.87l1.21.92c-1.25-4.59-2.49-9.18-3.74-13.77-.42-1.55-2.83-.89-2.41.66,1.25,4.59,2.49,9.18,3.74,13.77.15.56.65.88,1.21.92,4.81.29,9.63.58,14.44.87l-.33-2.46c-4.21,1.5-8.42,3-12.63,4.5-.51.18-.94.63-.92,1.21.24,6.58.48,13.16.73,19.74l2.33-.63c-3.33-6.03-6.66-12.06-9.99-18.09-.42-.77-1.36-.74-1.96-.25-5.33,4.26-10.67,8.53-16,12.79l1.96,1.51c2.54-5.25,5.08-10.5,7.62-15.75.33-.68.1-1.66-.75-1.84-5.06-1.04-10.11-2.08-15.17-3.12l-.33,2.46c6.1-.26,12.24-.34,18.34-.79,1.39-.1,1.84-1.45,2.51-2.53.83-1.34,1.66-2.67,2.5-4.01,1.66-2.67,3.33-5.34,4.99-8.01.85-1.37-1.31-2.63-2.16-1.26Z"/><path class="cls-2" d="m264.16,42.05c-.46,3.87-.92,7.74-1.39,11.62l.92-1.21c-3.12.64-6.24,1.27-9.36,1.91-1.25.25-1.13,2.09,0,2.41,3.4.97,6.81,1.95,10.21,2.92l-.75-.57c1.82,3.78,3.65,7.57,5.47,11.35.59,1.23,2.22.47,2.33-.63.42-4.04.84-8.08,1.26-12.12l-.92,1.21c3.25-.89,6.51-1.78,9.76-2.68,1.1-.3,1.27-2.22,0-2.41-3.93-.58-7.86-1.16-11.79-1.73l.87.87c-1.39-3.76-2.77-7.51-4.16-11.27-.55-1.5-2.97-.85-2.41.66,1.39,3.76,2.77,7.51,4.16,11.27.14.38.43.81.87.87,3.93.58,7.86,1.16,11.79,1.73v-2.41c-3.25.89-6.51,1.78-9.76,2.68-.58.16-.86.65-.92,1.21-.42,4.04-.84,8.08-1.26,12.12l2.33-.63c-.91-1.89-1.82-3.78-2.74-5.67s-1.64-3.72-2.63-5.46c-.5-.87-1.33-.93-2.24-1.19s-1.86-.53-2.78-.8c-2.01-.58-4.02-1.15-6.03-1.73v2.41l9.36-1.91c.58-.12.85-.68.92-1.21.46-3.87.92-7.74,1.39-11.62.19-1.59-2.31-1.58-2.5,0Z"/><path class="cls-2" d="m364.28,61.02c6.02-1.01,12.2-1.34,18.3-1.06,3.57.16,6.69,1.19,9.58,3.29,4.11,2.99,6.39,7.72,4.49,12.7-.91,2.39-2.54,4.46-4.25,6.34-1.88,2.06-3.9,3.91-6.29,5.39-4.2,2.6-9.06,4.05-13.96,4.5l.63,2.33c5.18-2.46,9.25-7.38,10.12-13.11,1.05-6.85-2.09-13.42-7.46-17.61-3.3-2.58-7.03-4.39-11.16-5.17-1.57-.3-2.25,2.11-.66,2.41,5.9,1.11,11.9,4.62,14.93,9.96,3.25,5.73,2.58,13.03-2.06,17.81-1.43,1.47-3.12,2.68-4.97,3.56-1.1.52-.59,2.44.63,2.33,4.74-.43,9.4-1.67,13.61-3.91,5.04-2.68,9.93-7.24,12.53-12.39s1.66-11.3-2.67-15.47c-2.72-2.62-6.3-4.6-10.05-5.16s-7.39-.4-11.03-.27-7.32.53-10.93,1.14c-1.58.26-.91,2.67.66,2.41Z"/><path class="cls-2" d="m476.18,34.53c-1.8,2.83-3.59,5.66-5.39,8.49l1.08-.62c-3.85.38-7.71.75-11.56,1.13-1.34.13-1.77,2.06-.33,2.46,2.82.78,5.65,1.57,8.47,2.35l-.75-1.84c-1.45,3.31-2.91,6.61-4.36,9.92-.57,1.3.83,2.45,1.96,1.51,3.4-2.8,6.79-5.59,10.19-8.39l-1.96-.25c2.32,3.99,4.64,7.98,6.96,11.97.6,1.04,2.39.63,2.33-.63-.2-4.25-.39-8.49-.59-12.74l-.92,1.21c2.68-1.11,5.36-2.22,8.03-3.32,1.28-.53,1.14-2.34-.33-2.46-3.1-.24-6.2-.48-9.31-.72l1.21.92c-.82-2.9-1.63-5.8-2.45-8.69-.44-1.55-2.85-.89-2.41.66.82,2.9,1.63,5.8,2.45,8.69.16.56.65.87,1.21.92,3.1.24,6.2.48,9.31.72l-.33-2.46c-2.68,1.11-5.36,2.22-8.03,3.32-.5.21-.95.61-.92,1.21.2,4.25.39,8.49.59,12.74l2.33-.63c-2.32-3.99-4.64-7.98-6.96-11.97-.44-.75-1.35-.76-1.96-.25-3.4,2.8-6.79,5.59-10.19,8.39l1.96,1.51c1.45-3.31,2.91-6.61,4.36-9.92.32-.73.1-1.6-.75-1.84-2.82-.78-5.65-1.57-8.47-2.35l-.33,2.46c3.25-.32,6.5-.63,9.75-.95,1.07-.1,2.33.01,2.99-.96.93-1.37,1.77-2.79,2.66-4.19l2.63-4.14c.86-1.36-1.3-2.62-2.16-1.26Z"/><path class="cls-2" d="m607.21,57.71c-.41,5.89-.82,11.78-1.23,17.68l.92-1.21c-4.3.82-8.61,1.64-12.91,2.46-1.49.28-.96,2.32.33,2.46,4.3.46,8.61.92,12.91,1.38l-1.08-.62c2.87,6.05,5.74,12.09,8.61,18.14.43.91,2.14.76,2.28-.3.92-6.61,1.84-13.22,2.77-19.83l-1.21.92c4.36-.51,8.71-1.02,13.07-1.54,1.26-.15,1.86-2.22.33-2.46-5.53-.87-11.07-1.74-16.6-2.61l.87.87c-2.2-5.23-4.41-10.45-6.61-15.68-.62-1.46-3.04-.82-2.41.66,1.94,4.61,3.89,9.23,5.83,13.84.26.61.48,1.24.77,1.83.44.9,1.01.9,1.87,1.04,2.81.44,5.61.88,8.42,1.32,2.4.38,4.8.75,7.19,1.13l.33-2.46c-4.36.51-8.71,1.02-13.07,1.54-.49.06-1.13.34-1.21.92-.92,6.61-1.84,13.22-2.77,19.83l2.28-.3c-2.07-4.37-4.14-8.73-6.22-13.1l-1.64-3.46c-.24-.5-.43-1.11-.74-1.57-.48-.71-1.35-.66-2.11-.74l-3.95-.42c-2.64-.28-5.29-.57-7.93-.85l.33,2.46c4.3-.82,8.61-1.64,12.91-2.46.56-.11.88-.69.92-1.21.41-5.89.82-11.78,1.23-17.68.11-1.61-2.39-1.6-2.5,0Z"/></svg>